<svg width="24" height="25" viewBox="0 0 24 25" fill="none" xmlns="http://www.w3.org/2000/svg">
<g clip-path="url(#clip0_1373_8081)">
<path d="M7 12.5L10 15.5L17 8.5M20 15.5C19 16.5 21.25 19.25 20 20.5C18.75 21.75 16 19.5 15 20.5C14 21.5 13.5 23.5 12 23.5C10.5 23.5 10 21.5 9 20.5C8 19.5 5.25 21.75 4 20.5C2.75 19.25 5 16.5 4 15.5C3 14.5 1 14 1 12.5C1 11 3 10.5 4 9.5C5 8.5 2.75 5.75 4 4.5C5.25 3.25 8 5.5 9 4.5C10 3.5 10.5 1.5 12 1.5C13.5 1.5 14 3.5 15 4.5C16 5.5 18.75 3.25 20 4.5C21.25 5.75 19 8.5 20 9.5C21 10.5 23 11 23 12.5C23 14 21 14.5 20 15.5Z" stroke="#003399" stroke-width="2"/>
</g>
<defs>
<clipPath id="clip0_1373_8081">
<rect width="24" height="24" fill="white" transform="translate(0 0.5)"/>
</clipPath>
</defs>
</svg>
