<svg xmlns="http://www.w3.org/2000/svg" width="24" height="24" viewBox="0 0 24 24" fill="none">
  <path d="M12.0002 15.1C11.9002 15.1 11.8085 15.0833 11.7252 15.05C11.6418 15.0167 11.5585 14.9583 11.4752 14.875L6.52517 9.925C6.37517 9.775 6.30434 9.59583 6.31267 9.3875C6.321 9.17917 6.40017 9 6.55017 8.85C6.70017 8.7 6.87934 8.625 7.08767 8.625C7.296 8.625 7.47517 8.7 7.62517 8.85L12.0002 13.25L16.4002 8.85C16.5502 8.7 16.7252 8.62917 16.9252 8.6375C17.1252 8.64583 17.3002 8.725 17.4502 8.875C17.6002 9.025 17.6752 9.20417 17.6752 9.4125C17.6752 9.62083 17.6002 9.8 17.4502 9.95L12.5252 14.875C12.4418 14.9583 12.3585 15.0167 12.2752 15.05C12.1918 15.0833 12.1002 15.1 12.0002 15.1Z" fill="#0DDE65"/>
</svg>