<svg xmlns="http://www.w3.org/2000/svg" width="20" height="20" viewBox="0 0 20 20" fill="none">
  <path d="M11.0414 9.97949L7.3539 6.29199C7.2289 6.16699 7.16987 6.02116 7.17682 5.85449C7.18376 5.68783 7.24973 5.54199 7.37473 5.41699C7.49973 5.29199 7.64904 5.22949 7.82265 5.22949C7.99626 5.22949 8.14557 5.29199 8.27057 5.41699L12.3956 9.54199C12.465 9.61144 12.5136 9.68088 12.5414 9.75033C12.5692 9.81977 12.5831 9.89616 12.5831 9.97949C12.5831 10.0628 12.5692 10.1392 12.5414 10.2087C12.5136 10.2781 12.465 10.3475 12.3956 10.417L8.24973 14.5628C8.12473 14.6878 7.9789 14.7469 7.81223 14.7399C7.64557 14.733 7.49973 14.667 7.37473 14.542C7.24973 14.417 7.18723 14.2677 7.18723 14.0941C7.18723 13.9205 7.24973 13.7712 7.37473 13.6462L11.0414 9.97949Z" fill="#0DDE65"/>
</svg>