<svg width="21" height="21" viewBox="0 0 21 21" fill="none" xmlns="http://www.w3.org/2000/svg">
<path d="M10.8237 1.88062L18.6987 5.0306C19.005 5.1531 19.25 5.5206 19.25 5.84435V8.74935C19.25 9.2306 18.8563 9.62435 18.375 9.62435H2.625C2.14375 9.62435 1.75 9.2306 1.75 8.74935V5.84435C1.75 5.5206 1.995 5.1531 2.30125 5.0306L10.1763 1.88062C10.3513 1.81063 10.6487 1.81063 10.8237 1.88062Z" stroke="#003399" stroke-width="1.3125" stroke-miterlimit="10" stroke-linecap="round" stroke-linejoin="round"/>
<path d="M19.25 19.25H1.75V16.625C1.75 16.1437 2.14375 15.75 2.625 15.75H18.375C18.8563 15.75 19.25 16.1437 19.25 16.625V19.25Z" stroke="#003399" stroke-width="1.3125" stroke-miterlimit="10" stroke-linecap="round" stroke-linejoin="round"/>
<path d="M3.5 15.75V9.625" stroke="#003399" stroke-width="1.3125" stroke-miterlimit="10" stroke-linecap="round" stroke-linejoin="round"/>
<path d="M7 15.75V9.625" stroke="#003399" stroke-width="1.3125" stroke-miterlimit="10" stroke-linecap="round" stroke-linejoin="round"/>
<path d="M10.5 15.75V9.625" stroke="#003399" stroke-width="1.3125" stroke-miterlimit="10" stroke-linecap="round" stroke-linejoin="round"/>
<path d="M14 15.75V9.625" stroke="#003399" stroke-width="1.3125" stroke-miterlimit="10" stroke-linecap="round" stroke-linejoin="round"/>
<path d="M17.5 15.75V9.625" stroke="#003399" stroke-width="1.3125" stroke-miterlimit="10" stroke-linecap="round" stroke-linejoin="round"/>
<path d="M0.875 19.25H20.125" stroke="#003399" stroke-width="1.3125" stroke-miterlimit="10" stroke-linecap="round" stroke-linejoin="round"/>
<path d="M10.5 7.4375C11.2249 7.4375 11.8125 6.84987 11.8125 6.125C11.8125 5.40013 11.2249 4.8125 10.5 4.8125C9.77513 4.8125 9.1875 5.40013 9.1875 6.125C9.1875 6.84987 9.77513 7.4375 10.5 7.4375Z" stroke="#003399" stroke-width="1.3125" stroke-miterlimit="10" stroke-linecap="round" stroke-linejoin="round"/>
</svg>
