<svg width="20" height="21" viewBox="0 0 20 21" fill="none" xmlns="http://www.w3.org/2000/svg">
<path d="M10 0.5C4.48 0.5 0 4.98 0 10.5C0 16.02 4.48 20.5 10 20.5C15.52 20.5 20 16.02 20 10.5C20 4.98 15.52 0.5 10 0.5ZM10 18.5C5.59 18.5 2 14.91 2 10.5C2 6.09 5.59 2.5 10 2.5C14.41 2.5 18 6.09 18 10.5C18 14.91 14.41 18.5 10 18.5ZM14.17 13.26L13.07 12.16C13.78 10.83 13.6 9.15 12.48 8.03C12.1554 7.7027 11.769 7.44312 11.3433 7.2663C10.9176 7.08949 10.461 6.99898 10 7C9.97 7 9.94 7.01 9.91 7.01L11 8.1L9.94 9.16L7.11 6.33L9.94 3.5L11 4.56L10.04 5.52C11.31 5.53 12.57 6 13.54 6.96C15.24 8.67 15.45 11.32 14.17 13.26ZM12.89 14.67L10.06 17.5L9 16.44L9.95 15.49C8.64316 15.4798 7.39293 14.9553 6.47 14.03C5.65604 13.2152 5.14793 12.1446 5.03135 10.9988C4.91476 9.85302 5.19683 8.70206 5.83 7.74L6.93 8.84C6.22 10.17 6.4 11.85 7.52 12.97C8.22 13.67 9.15 14.01 10.08 13.98L9 12.9L10.06 11.84L12.89 14.67Z" fill="#003399"/>
</svg>
