<svg width="25" height="26" viewBox="0 0 25 26" fill="none" xmlns="http://www.w3.org/2000/svg">
<path d="M12.5 2.84375C10.4913 2.84375 8.52768 3.4394 6.85749 4.55539C5.18731 5.67137 3.88556 7.25756 3.11685 9.11337C2.34815 10.9692 2.14702 13.0113 2.5389 14.9814C2.93079 16.9515 3.89807 18.7612 5.31845 20.1816C6.73883 21.6019 8.5485 22.5692 10.5186 22.9611C12.4887 23.353 14.5308 23.1519 16.3866 22.3832C18.2424 21.6144 19.8286 20.3127 20.9446 18.6425C22.0606 16.9723 22.6563 15.0087 22.6563 13C22.6534 10.3073 21.5825 7.72564 19.6784 5.82159C17.7744 3.91754 15.1927 2.84659 12.5 2.84375ZM12.5 21.5938C10.8003 21.5938 9.13881 21.0897 7.72557 20.1454C6.31234 19.2011 5.21086 17.859 4.56041 16.2887C3.90997 14.7184 3.73979 12.9905 4.07138 11.3234C4.40297 9.65642 5.22145 8.12516 6.42331 6.9233C7.62516 5.72144 9.15642 4.90297 10.8234 4.57138C12.4905 4.23978 14.2184 4.40997 15.7887 5.06041C17.359 5.71085 18.7012 6.81233 19.6454 8.22557C20.5897 9.6388 21.0938 11.3003 21.0938 13C21.0912 15.2784 20.1849 17.4628 18.5738 19.0738C16.9628 20.6849 14.7784 21.5912 12.5 21.5938ZM18.75 13C18.75 14.2361 18.3834 15.4445 17.6967 16.4723C17.0099 17.5001 16.0338 18.3012 14.8918 18.7742C13.7497 19.2473 12.4931 19.3711 11.2807 19.1299C10.0683 18.8888 8.95467 18.2935 8.08059 17.4194C7.20651 16.5453 6.61125 15.4317 6.3701 14.2193C6.12894 13.0069 6.25271 11.7503 6.72576 10.6082C7.19881 9.46619 7.99988 8.49007 9.02769 7.80331C10.0555 7.11656 11.2639 6.75 12.5 6.75C14.1571 6.75181 15.7457 7.41087 16.9174 8.58258C18.0891 9.75429 18.7482 11.343 18.75 13Z" fill="#B3B3B3"/>
</svg>
