<svg width="51" height="51" viewBox="0 0 51 51" fill="none" xmlns="http://www.w3.org/2000/svg">
<circle cx="25.5" cy="25.5" r="25.5" fill="#CCD6EB"/>
<path d="M25.5001 22.875C24.6713 22.875 23.8764 23.2042 23.2904 23.7903C22.7043 24.3763 22.3751 25.1712 22.3751 26C22.3751 26.8288 22.7043 27.6237 23.2904 28.2097C23.8764 28.7958 24.6713 29.125 25.5001 29.125C26.3289 29.125 27.1237 28.7958 27.7098 28.2097C28.2958 27.6237 28.6251 26.8288 28.6251 26C28.6251 25.1712 28.2958 24.3763 27.7098 23.7903C27.1237 23.2042 26.3289 22.875 25.5001 22.875ZM25.5001 31.2083C24.1187 31.2083 22.794 30.6596 21.8172 29.6828C20.8405 28.7061 20.2917 27.3813 20.2917 26C20.2917 24.6187 20.8405 23.2939 21.8172 22.3172C22.794 21.3404 24.1187 20.7917 25.5001 20.7917C26.8814 20.7917 28.2062 21.3404 29.1829 22.3172C30.1597 23.2939 30.7084 24.6187 30.7084 26C30.7084 27.3813 30.1597 28.7061 29.1829 29.6828C28.2062 30.6596 26.8814 31.2083 25.5001 31.2083ZM25.5001 18.1875C20.2917 18.1875 15.8438 21.4271 14.0417 26C15.8438 30.5729 20.2917 33.8125 25.5001 33.8125C30.7084 33.8125 35.1563 30.5729 36.9584 26C35.1563 21.4271 30.7084 18.1875 25.5001 18.1875Z" fill="#000A1F"/>
</svg>
