<svg width="25" height="26" viewBox="0 0 25 26" fill="none" xmlns="http://www.w3.org/2000/svg">
<path d="M12.4998 9.875C11.671 9.875 10.8762 10.2042 10.2901 10.7903C9.70408 11.3763 9.37484 12.1712 9.37484 13C9.37484 13.8288 9.70408 14.6237 10.2901 15.2097C10.8762 15.7958 11.671 16.125 12.4998 16.125C13.3286 16.125 14.1235 15.7958 14.7095 15.2097C15.2956 14.6237 15.6248 13.8288 15.6248 13C15.6248 12.1712 15.2956 11.3763 14.7095 10.7903C14.1235 10.2042 13.3286 9.875 12.4998 9.875ZM12.4998 18.2083C11.1185 18.2083 9.79374 17.6596 8.81699 16.6828C7.84024 15.7061 7.2915 14.3813 7.2915 13C7.2915 11.6187 7.84024 10.2939 8.81699 9.31715C9.79374 8.3404 11.1185 7.79167 12.4998 7.79167C13.8812 7.79167 15.2059 8.3404 16.1827 9.31715C17.1594 10.2939 17.7082 11.6187 17.7082 13C17.7082 14.3813 17.1594 15.7061 16.1827 16.6828C15.2059 17.6596 13.8812 18.2083 12.4998 18.2083ZM12.4998 5.1875C7.2915 5.1875 2.84359 8.42708 1.0415 13C2.84359 17.5729 7.2915 20.8125 12.4998 20.8125C17.7082 20.8125 22.1561 17.5729 23.9582 13C22.1561 8.42708 17.7082 5.1875 12.4998 5.1875Z" fill="#000A1F"/>
</svg>
