<svg width="51" height="51" viewBox="0 0 51 51" fill="none" xmlns="http://www.w3.org/2000/svg">
<circle cx="25.5" cy="25.5" r="25.5" fill="#003399"/>
<path d="M25.83 23.5L29 26.66V26.5C29 25.7044 28.6839 24.9413 28.1213 24.3787C27.5587 23.8161 26.7956 23.5 26 23.5H25.83ZM21.53 24.3L23.08 25.85C23.03 26.06 23 26.27 23 26.5C23 27.2956 23.3161 28.0587 23.8787 28.6213C24.4413 29.1839 25.2044 29.5 26 29.5C26.22 29.5 26.44 29.47 26.65 29.42L28.2 30.97C27.53 31.3 26.79 31.5 26 31.5C24.6739 31.5 23.4021 30.9732 22.4645 30.0355C21.5268 29.0979 21 27.8261 21 26.5C21 25.71 21.2 24.97 21.53 24.3ZM16 18.77L18.28 21.05L18.73 21.5C17.08 22.8 15.78 24.5 15 26.5C16.73 30.89 21 34 26 34C27.55 34 29.03 33.7 30.38 33.16L30.81 33.58L33.73 36.5L35 35.23L17.27 17.5M26 21.5C27.3261 21.5 28.5979 22.0268 29.5355 22.9645C30.4732 23.9021 31 25.1739 31 26.5C31 27.14 30.87 27.76 30.64 28.32L33.57 31.25C35.07 30 36.27 28.36 37 26.5C35.27 22.11 31 19 26 19C24.6 19 23.26 19.25 22 19.7L24.17 21.85C24.74 21.63 25.35 21.5 26 21.5Z" fill="white"/>
</svg>
