<svg width="16" height="16" viewBox="0 0 16 16" fill="none" xmlns="http://www.w3.org/2000/svg">
<g clip-path="url(#clip0_1303_14572)">
<path d="M13.5 5.88C13.22 5.88 13 5.66 13 5.38V1.5C13 1.22 12.78 1 12.5 1H3.5C3.22 1 3 1.22 3 1.5V3.5C3 3.78 2.78 4 2.5 4C2.22 4 2 3.78 2 3.5V1.5C2 0.67 2.67 0 3.5 0H12.5C13.33 0 14 0.67 14 1.5V5.38C14 5.66 13.78 5.88 13.5 5.88Z" fill="#000A1F"/>
<path d="M14.5 16H1.5C0.67 16 0 15.33 0 14.5V4.5C0 3.67 0.67 3 1.5 3H6.25C6.41 3 6.56 3.07 6.65 3.2L8 5H14.5C15.33 5 16 5.67 16 6.5V14.5C16 15.33 15.33 16 14.5 16ZM1.5 4C1.22 4 1 4.22 1 4.5V14.5C1 14.78 1.22 15 1.5 15H14.5C14.78 15 15 14.78 15 14.5V6.5C15 6.22 14.78 6 14.5 6H7.75C7.6721 6.00163 7.59497 5.98428 7.52528 5.94943C7.45559 5.91459 7.39543 5.8633 7.35 5.8L6 4H1.5Z" fill="#000A1F"/>
<path d="M5.5 13H3.5C3.22 13 3 12.78 3 12.5C3 12.22 3.22 12 3.5 12H5.5C5.78 12 6 12.22 6 12.5C6 12.78 5.78 13 5.5 13Z" fill="#000A1F"/>
</g>
<defs>
<clipPath id="clip0_1303_14572">
<rect width="16" height="16" fill="white"/>
</clipPath>
</defs>
</svg>
