<svg xmlns="http://www.w3.org/2000/svg" width="23" height="23" viewBox="0 0 23 23" fill="none">
  <path d="M10.278 16.7002C10.0832 16.7002 9.91992 16.6339 9.78815 16.5014C9.65638 16.3688 9.5905 16.2046 9.5905 16.0087C9.5905 15.8127 9.65638 15.6498 9.78815 15.52C9.91992 15.3901 10.0832 15.3252 10.278 15.3252H12.5697C12.7645 15.3252 12.9277 15.3915 13.0595 15.524C13.1913 15.6565 13.2572 15.8208 13.2572 16.0167C13.2572 16.2126 13.1913 16.3755 13.0595 16.5054C12.9277 16.6353 12.7645 16.7002 12.5697 16.7002H10.278ZM6.61133 11.8877C6.41654 11.8877 6.25326 11.8214 6.12148 11.6889C5.98971 11.5563 5.92383 11.3921 5.92383 11.1962C5.92383 11.0002 5.98971 10.8373 6.12148 10.7075C6.25326 10.5776 6.41654 10.5127 6.61133 10.5127H16.2363C16.4311 10.5127 16.5944 10.579 16.7262 10.7115C16.8579 10.844 16.9238 11.0083 16.9238 11.2042C16.9238 11.4001 16.8579 11.563 16.7262 11.6929C16.5944 11.8228 16.4311 11.8877 16.2363 11.8877H6.61133ZM3.86133 7.0752C3.66654 7.0752 3.50326 7.00893 3.37148 6.87639C3.23971 6.74384 3.17383 6.57961 3.17383 6.38369C3.17383 6.18775 3.23971 6.02485 3.37148 5.89499C3.50326 5.76513 3.66654 5.7002 3.86133 5.7002H18.9863C19.1811 5.7002 19.3444 5.76646 19.4762 5.899C19.6079 6.03155 19.6738 6.19578 19.6738 6.39171C19.6738 6.58764 19.6079 6.75054 19.4762 6.8804C19.3444 7.01026 19.1811 7.0752 18.9863 7.0752H3.86133Z" fill="#0DDE65"/>
</svg>