<svg width="52" height="51" viewBox="0 0 52 51" fill="none" xmlns="http://www.w3.org/2000/svg">
<circle cx="26" cy="25.5" r="25.5" fill="#fff"/>
<path d="M32.7501 21.3334H31.7084V19.2501C31.7084 16.3751 29.3751 14.0417 26.5001 14.0417C23.6251 14.0417 21.2917 16.3751 21.2917 19.2501V21.3334H20.2501C19.1042 21.3334 18.1667 22.2709 18.1667 23.4167V33.8334C18.1667 34.9792 19.1042 35.9167 20.2501 35.9167H32.7501C33.8959 35.9167 34.8334 34.9792 34.8334 33.8334V23.4167C34.8334 22.2709 33.8959 21.3334 32.7501 21.3334ZM26.5001 30.7084C25.3542 30.7084 24.4167 29.7709 24.4167 28.6251C24.4167 27.4792 25.3542 26.5417 26.5001 26.5417C27.6459 26.5417 28.5834 27.4792 28.5834 28.6251C28.5834 29.7709 27.6459 30.7084 26.5001 30.7084ZM23.3751 21.3334V19.2501C23.3751 17.5209 24.7709 16.1251 26.5001 16.1251C28.2292 16.1251 29.6251 17.5209 29.6251 19.2501V21.3334H23.3751Z" fill="#000A1F"/>
</svg>
