<svg width="52" height="51" viewBox="0 0 52 51" fill="none" xmlns="http://www.w3.org/2000/svg">
<circle cx="26" cy="25.5" r="25.5" fill="#003399"/>
<path d="M31.7499 14.0417C28.8749 14.0417 26.5416 16.3751 26.5416 19.2501V21.3334H17.1666C16.6141 21.3334 16.0841 21.5529 15.6934 21.9436C15.3027 22.3343 15.0833 22.8642 15.0833 23.4167V33.8334C15.0833 34.3859 15.3027 34.9159 15.6934 35.3066C16.0841 35.6973 16.6141 35.9167 17.1666 35.9167H29.6666C30.8228 35.9167 31.7499 34.9897 31.7499 33.8334V23.4167C31.7499 22.8642 31.5304 22.3343 31.1397 21.9436C30.749 21.5529 30.2191 21.3334 29.6666 21.3334H28.6249V19.2501C28.6249 17.5209 30.0208 16.1251 31.7499 16.1251C33.4791 16.1251 34.8749 17.5209 34.8749 19.2501V21.3334H36.9583V19.2501C36.9583 16.3751 34.6249 14.0417 31.7499 14.0417ZM23.4166 26.5417C23.9691 26.5417 24.499 26.7612 24.8897 27.1519C25.2804 27.5426 25.4999 28.0725 25.4999 28.6251C25.4999 29.7813 24.5728 30.7084 23.4166 30.7084C22.8641 30.7084 22.3341 30.4889 21.9434 30.0982C21.5527 29.7075 21.3333 29.1776 21.3333 28.6251C21.3333 28.0725 21.5527 27.5426 21.9434 27.1519C22.3341 26.7612 22.8641 26.5417 23.4166 26.5417Z" fill="white"/>
</svg>
