<svg width="38" height="39" viewBox="0 0 38 39" fill="none" xmlns="http://www.w3.org/2000/svg">
<g id="bank">
<rect y="0.5" width="38" height="38" rx="19" fill="white"/>
<g id="Group 115604">
<rect id="Rectangle 2035" x="3" y="3.5" width="33" height="33" fill="white"/>
<g id="Group 16">
<g id="Mask group">
<mask id="mask0_1105_13506" style="mask-type:alpha" maskUnits="userSpaceOnUse" x="5" y="11" width="21" height="13">
<path id="Vector" fill-rule="evenodd" clip-rule="evenodd" d="M7.562 14.4417C5.27954 16.0713 4.38286 18.9639 5.44257 23.5268C5.48333 23.2824 5.56485 23.0787 5.64636 22.8342C7.60275 17.0898 14.2463 17.7009 19.015 17.5787C23.8245 17.4972 25.5363 14.5232 25.9847 11.0195C22.1534 14.4417 13.0236 10.5714 7.562 14.4417Z" fill="#D9D9D9"/>
</mask>
<g mask="url(#mask0_1105_13506)">
<path id="Vector_2" d="M25.9732 10.6484H4.29395V23.6806H25.9732V10.6484Z" fill="url(#paint0_linear_1105_13506)"/>
</g>
</g>
<g id="Group">
<path id="Vector_3" fill-rule="evenodd" clip-rule="evenodd" d="M24.2919 6.59306C31.5046 9.58472 34.9061 17.863 31.9145 25.0758C28.9228 32.2885 20.6445 35.69 13.4318 32.6983C12.0384 32.1246 10.768 31.3459 9.70245 30.4034C8.9238 29.6657 7.94024 27.4527 8.18613 25.7315C8.43202 24.0102 11.1778 24.0922 12.817 24.625C11.0548 25.5675 12.0794 27.7805 15.8907 28.969C21.0134 30.5263 27.4065 28.5182 29.7015 22.9857C32.2013 17.0024 29.0867 9.99453 22.7346 7.37171C16.6693 4.83085 7.98122 8.23232 5.3584 15.4451C5.48134 15.0353 5.64527 14.6254 5.8092 14.2156C8.80085 7.00288 17.0791 3.56042 24.2919 6.59306Z" fill="#003399"/>
<path id="Vector_4" opacity="0.15" fill-rule="evenodd" clip-rule="evenodd" d="M9.70269 30.4044C8.47324 28.8061 9.16993 26.716 10.5633 25.6095C11.219 25.1178 11.9567 24.8309 12.8173 24.626C11.8747 25.1587 11.7518 26.0193 12.4485 26.9209C9.21091 27.0439 9.70269 30.3634 9.70269 30.4044Z" fill="#001F5C"/>
<path id="Vector_5" opacity="0.15" fill-rule="evenodd" clip-rule="evenodd" d="M9.70269 30.4044C8.47324 28.8061 9.16993 26.716 10.5633 25.6095C11.219 25.1178 11.9567 24.8309 12.8173 24.626C12.2845 24.9128 11.9977 25.3227 11.9977 25.7735C8.92404 26.5521 9.29288 29.6667 9.70269 30.4044Z" fill="#001F5C"/>
<path id="Vector_6" opacity="0.15" fill-rule="evenodd" clip-rule="evenodd" d="M5.65409 22.8677C7.61298 17.0566 14.265 17.6705 18.999 17.5886C23.6106 17.5068 25.3654 14.765 25.896 11.4502C25.3654 12.4733 24.6308 13.2917 23.6514 13.9056C22.5087 14.6013 21.2028 14.9287 19.8969 15.0923C18.4685 15.297 17.0401 15.297 15.571 15.3788C13.2856 15.4607 10.6329 15.5834 8.55162 16.6883C6.10301 17.9979 5.49085 20.4942 5.53166 23.1133C5.61328 22.9905 5.61328 22.9496 5.65409 22.8677Z" fill="#001F5C"/>
</g>
<g id="Mask group_2">
<mask id="mask1_1105_13506" style="mask-type:alpha" maskUnits="userSpaceOnUse" x="6" y="17" width="19" height="14">
<path id="Vector_7" fill-rule="evenodd" clip-rule="evenodd" d="M11.0532 19.9562C6.45996 21.5194 5.18862 26.4969 9.74085 30.446C8.51052 28.8417 9.20771 26.7438 10.6021 25.6331C14.2931 22.7124 22.4953 26.9906 24.2178 17.8994C20.9369 20.6556 15.5644 18.4342 11.0532 19.9562Z" fill="#D9D9D9"/>
</mask>
<g mask="url(#mask1_1105_13506)">
<path id="Vector_8" d="M24.1288 17.9033H5.1543V30.4027H24.1288V17.9033Z" fill="url(#paint1_linear_1105_13506)"/>
</g>
</g>
<path id="Vector_9" opacity="0.2" fill-rule="evenodd" clip-rule="evenodd" d="M10.6081 25.6755C11.2616 25.1779 11.9967 24.8876 12.8543 24.6803C16.8157 23.851 22.5332 25.3852 24.0851 18.2529C23.2275 19.6213 22.0431 20.5751 20.4912 21.1556C19.3069 21.6118 18 21.7776 16.734 21.8606C15.5905 21.9435 14.447 21.985 13.3444 22.1508C12.3234 22.2752 11.2616 22.524 10.3631 23.0216C10.2406 23.1046 10.1181 23.146 9.99556 23.229C9.42381 23.6022 8.97458 24.0583 8.64786 24.6388C8.19863 25.4267 8.03527 26.339 8.19863 27.2513C8.36199 28.1635 8.77038 28.9929 9.30129 29.7393V29.6978C8.93374 28.7441 9.09709 27.7489 9.54632 26.8781C9.58716 26.8366 9.58716 26.7951 9.628 26.7537C9.87304 26.339 10.1998 25.9658 10.6081 25.6755Z" fill="#001F5C"/>
</g>
</g>
</g>
<defs>
<linearGradient id="paint0_linear_1105_13506" x1="10.5683" y1="8.40507" x2="18.3317" y2="23.2804" gradientUnits="userSpaceOnUse">
<stop stop-color="#003398"/>
<stop offset="1" stop-color="#4DEA8F"/>
</linearGradient>
<linearGradient id="paint1_linear_1105_13506" x1="18.5139" y1="14.5582" x2="10.9297" y2="33.4254" gradientUnits="userSpaceOnUse">
<stop stop-color="#003398"/>
<stop offset="1" stop-color="#4DEA8F"/>
</linearGradient>
</defs>
</svg>
