<svg width="52" height="51" viewBox="0 0 52 51" fill="none" xmlns="http://www.w3.org/2000/svg">
<circle cx="26" cy="25.5" r="25.5" fill="#fff"/>
<path opacity="0.16" d="M21.8125 38.0001C23.5384 38.0001 24.9375 36.1346 24.9375 33.8334C24.9375 31.5322 23.5384 29.6667 21.8125 29.6667C20.0866 29.6667 18.6875 31.5322 18.6875 33.8334C18.6875 36.1346 20.0866 38.0001 21.8125 38.0001Z" fill="black"/>
<path opacity="0.16" d="M31.1875 21.3333C32.9134 21.3333 34.3125 19.4679 34.3125 17.1667C34.3125 14.8655 32.9134 13 31.1875 13C29.4616 13 28.0625 14.8655 28.0625 17.1667C28.0625 19.4679 29.4616 21.3333 31.1875 21.3333Z" fill="black"/>
<path d="M14 17.1667H28.0625M34.3125 17.1667H39M24.9375 33.8334H39M14 33.8334H18.6875" stroke="black" stroke-width="2" stroke-linecap="round" stroke-linejoin="round"/>
<path d="M21.8125 38.0001C23.5384 38.0001 24.9375 36.1346 24.9375 33.8334C24.9375 31.5322 23.5384 29.6667 21.8125 29.6667C20.0866 29.6667 18.6875 31.5322 18.6875 33.8334C18.6875 36.1346 20.0866 38.0001 21.8125 38.0001Z" stroke="black" stroke-width="2"/>
<path d="M31.1875 21.3333C32.9134 21.3333 34.3125 19.4679 34.3125 17.1667C34.3125 14.8655 32.9134 13 31.1875 13C29.4616 13 28.0625 14.8655 28.0625 17.1667C28.0625 19.4679 29.4616 21.3333 31.1875 21.3333Z" stroke="black" stroke-width="2"/>
</svg>
