<svg xmlns="http://www.w3.org/2000/svg" width="15" height="15" viewBox="0 0 15 15" fill="none">
  <g clip-path="url(#clip0_1105_13367)">
    <path d="M0.419434 13.9033C0.500168 13.6031 0.585166 13.3041 0.660784 13.0027C0.864325 12.1943 1.0619 11.3841 1.26828 10.5764C1.2896 10.4934 1.33935 10.4073 1.3999 10.3465C3.91375 7.8275 6.43045 5.31166 8.94685 2.79525C8.97215 2.76995 8.99944 2.74607 9.01423 2.73242C10.0078 3.72568 10.9976 4.71553 11.9991 5.71703C11.986 5.73125 11.9551 5.76735 11.9212 5.80089C9.41761 8.30423 6.914 10.8078 4.40725 13.3081C4.33448 13.3805 4.23157 13.4408 4.13236 13.4664C3.04785 13.7433 1.96106 14.0119 0.875128 14.2834C0.849543 14.2899 0.825379 14.3024 0.800647 14.3121H0.637189C0.564699 14.2393 0.492208 14.1668 0.419434 14.0941C0.419434 14.0304 0.419434 13.967 0.419434 13.9033Z" fill="white"/>
    <path d="M12.8942 4.82914C11.897 3.8319 10.906 2.84092 9.9082 1.84311C9.92185 1.82748 9.94374 1.80018 9.9679 1.77574C10.2789 1.46417 10.5893 1.15204 10.902 0.841891C11.5252 0.22416 12.4766 0.221601 13.1009 0.83649C13.3693 1.10087 13.6362 1.36666 13.9 1.63587C14.5288 2.2772 14.5274 3.1866 13.8969 3.82565C13.5626 4.16451 13.2243 4.49938 12.8942 4.82914Z" fill="white"/>
  </g>
  <defs>
    <clipPath id="clip0_1105_13367">
      <rect width="13.9511" height="13.9355" fill="white" transform="translate(0.419434 0.376953)"/>
    </clipPath>
  </defs>
</svg>