<svg width="25" height="25" viewBox="0 0 25 25" fill="none" xmlns="http://www.w3.org/2000/svg">
<circle cx="12.5" cy="12.7314" r="12" fill="#0DDE65"/>
<g clip-path="url(#clip0_1105_13478)">
<path d="M12.3748 13.1253H7.7915C7.61442 13.1253 7.46598 13.0651 7.34619 12.9446C7.2264 12.8241 7.1665 12.6748 7.1665 12.4967C7.1665 12.3186 7.2264 12.1705 7.34619 12.0524C7.46598 11.9344 7.61442 11.8753 7.7915 11.8753H12.3748V7.29199C12.3748 7.11491 12.4351 6.96647 12.5556 6.84668C12.6761 6.72689 12.8254 6.66699 13.0035 6.66699C13.1816 6.66699 13.3297 6.72689 13.4478 6.84668C13.5658 6.96647 13.6248 7.11491 13.6248 7.29199V11.8753H18.2082C18.3853 11.8753 18.5337 11.9356 18.6535 12.0561C18.7733 12.1766 18.8332 12.3259 18.8332 12.504C18.8332 12.6821 18.7733 12.8302 18.6535 12.9482C18.5337 13.0663 18.3853 13.1253 18.2082 13.1253H13.6248V17.7087C13.6248 17.8857 13.5646 18.0342 13.4441 18.154C13.3236 18.2738 13.1743 18.3337 12.9962 18.3337C12.8181 18.3337 12.67 18.2738 12.5519 18.154C12.4339 18.0342 12.3748 17.8857 12.3748 17.7087V13.1253Z" fill="white"/>
</g>
<defs>
<clipPath id="clip0_1105_13478">
<rect width="13.9511" height="13.9355" fill="white" transform="translate(5.91943 5.37695)"/>
</clipPath>
</defs>
</svg>
