<svg xmlns="http://www.w3.org/2000/svg" width="22" height="22" viewBox="0 0 22 22" fill="none">
  <path fill-rule="evenodd" clip-rule="evenodd" d="M9.22221 5.69728C7.19643 5.69728 5.55421 7.3395 5.55421 9.36528C5.55421 11.3911 7.19643 13.0333 9.22221 13.0333C11.248 13.0333 12.8902 11.3911 12.8902 9.36528C12.8902 7.3395 11.248 5.69728 9.22221 5.69728ZM3.72021 9.36528C3.72021 6.32661 6.18354 3.86328 9.22221 3.86328C12.2609 3.86328 14.7242 6.32661 14.7242 9.36528C14.7242 10.5536 14.3475 11.6539 13.707 12.5533L18.1236 16.9699C18.4817 17.328 18.4817 17.9086 18.1236 18.2667C17.7655 18.6248 17.1849 18.6248 16.8268 18.2667L12.4102 13.8501C11.5108 14.4906 10.4105 14.8673 9.22221 14.8673C6.18354 14.8673 3.72021 12.404 3.72021 9.36528Z" fill="#0DDE65"/>
</svg>