<svg width="24" height="25" viewBox="0 0 24 25" fill="none" xmlns="http://www.w3.org/2000/svg">
<path d="M21 12.72C21 7.23 16.74 3.5 12 3.5C7.31 3.5 3 7.15 3 12.78C2.4 13.12 2 13.76 2 14.5V16.5C2 17.6 2.9 18.5 4 18.5H5V12.4C5 8.53 8.13 5.4 12 5.4C15.87 5.4 19 8.53 19 12.4V19.5H11V21.5H19C20.1 21.5 21 20.6 21 19.5V18.28C21.59 17.97 22 17.36 22 16.64V14.34C22 13.64 21.59 13.03 21 12.72Z" fill="#003399"/>
<path d="M9 14.5C9.55228 14.5 10 14.0523 10 13.5C10 12.9477 9.55228 12.5 9 12.5C8.44772 12.5 8 12.9477 8 13.5C8 14.0523 8.44772 14.5 9 14.5Z" fill="#003399"/>
<path d="M15 14.5C15.5523 14.5 16 14.0523 16 13.5C16 12.9477 15.5523 12.5 15 12.5C14.4477 12.5 14 12.9477 14 13.5C14 14.0523 14.4477 14.5 15 14.5Z" fill="#003399"/>
<path d="M18.0005 11.53C17.762 10.1241 17.0339 8.84797 15.9449 7.92738C14.8559 7.0068 13.4764 6.50117 12.0505 6.5C9.02046 6.5 5.76046 9.01 6.02046 12.95C7.25359 12.4454 8.3427 11.6435 9.19069 10.6158C10.0387 9.58808 10.6192 8.36652 10.8805 7.06C12.1905 9.69 14.8805 11.5 18.0005 11.53Z" fill="#003399"/>
</svg>
