<svg width="50" height="27" viewBox="0 0 50 27" fill="none" xmlns="http://www.w3.org/2000/svg">
<g filter="url(#filter0_d_1303_8010)">
<rect x="1" width="48" height="25.0909" rx="1.36364" fill="url(#paint0_linear_1303_8010)"/>
<path d="M4.07637 21.0869H3.83582V20.4951H3.1791V21.0869H2.93855V19.7238H3.1791V20.2966H3.83582V19.7238H4.07637V21.0869ZM4.60816 20.077V21.0869H4.38479V20.077H4.60816ZM4.60816 19.7047V19.9243H4.38479V19.7047H4.60816ZM5.29458 20.0541C5.36331 20.0541 5.42376 20.0668 5.47594 20.0923C5.5294 20.1165 5.56949 20.1502 5.59621 20.1935H5.60385V19.7047H5.82721V21.0869H5.61531V20.9571H5.60767C5.57967 21.0055 5.53831 21.043 5.48358 21.0697C5.42885 21.0965 5.36649 21.1098 5.29649 21.1098C5.20867 21.1098 5.1304 21.0882 5.06167 21.0449C4.99294 21.0004 4.93885 20.9386 4.8994 20.8597C4.86122 20.7796 4.84212 20.6873 4.84212 20.5829C4.84212 20.4773 4.86122 20.385 4.8994 20.3061C4.93885 20.2259 4.99294 20.1642 5.06167 20.1209C5.1304 20.0764 5.20803 20.0541 5.29458 20.0541ZM5.34612 20.9342C5.42885 20.9342 5.4944 20.903 5.54276 20.8406C5.5924 20.7783 5.61721 20.6924 5.61721 20.5829C5.61721 20.4735 5.5924 20.3876 5.54276 20.3252C5.4944 20.2628 5.42885 20.2316 5.34612 20.2316C5.26085 20.2316 5.1934 20.2628 5.14376 20.3252C5.0954 20.3876 5.07121 20.4735 5.07121 20.5829C5.07121 20.6924 5.0954 20.7783 5.14376 20.8406C5.1934 20.903 5.26085 20.9342 5.34612 20.9342ZM6.50268 20.0541C6.5714 20.0541 6.63186 20.0668 6.68404 20.0923C6.73749 20.1165 6.77758 20.1502 6.80431 20.1935H6.81195V19.7047H7.03531V21.0869H6.8234V20.9571H6.81577C6.78777 21.0055 6.7464 21.043 6.69168 21.0697C6.63695 21.0965 6.57458 21.1098 6.50458 21.1098C6.41677 21.1098 6.33849 21.0882 6.26977 21.0449C6.20104 21.0004 6.14695 20.9386 6.10749 20.8597C6.06931 20.7796 6.05022 20.6873 6.05022 20.5829C6.05022 20.4773 6.06931 20.385 6.10749 20.3061C6.14695 20.2259 6.20104 20.1642 6.26977 20.1209C6.33849 20.0764 6.41613 20.0541 6.50268 20.0541ZM6.55422 20.9342C6.63695 20.9342 6.70249 20.903 6.75086 20.8406C6.80049 20.7783 6.82531 20.6924 6.82531 20.5829C6.82531 20.4735 6.80049 20.3876 6.75086 20.3252C6.70249 20.2628 6.63695 20.2316 6.55422 20.2316C6.46895 20.2316 6.40149 20.2628 6.35186 20.3252C6.30349 20.3876 6.27931 20.4735 6.27931 20.5829C6.27931 20.6924 6.30349 20.7783 6.35186 20.8406C6.40149 20.903 6.46895 20.9342 6.55422 20.9342ZM8.22241 20.791C8.19568 20.8788 8.14414 20.9539 8.06777 21.0163C7.99141 21.0786 7.88386 21.1098 7.74514 21.1098C7.64841 21.1098 7.56314 21.0882 7.48932 21.0449C7.4155 21.0004 7.35823 20.9386 7.3175 20.8597C7.27804 20.7808 7.25832 20.6892 7.25832 20.5848C7.25832 20.4779 7.27804 20.385 7.3175 20.3061C7.35695 20.2259 7.41295 20.1642 7.4855 20.1209C7.55932 20.0764 7.64586 20.0541 7.74514 20.0541C7.84059 20.0541 7.92459 20.0745 7.99714 20.1152C8.07095 20.1559 8.12823 20.2157 8.16895 20.2946C8.21095 20.3723 8.23195 20.4652 8.23195 20.5734C8.23195 20.5861 8.23068 20.6065 8.22814 20.6345H7.4855C7.48804 20.7248 7.51286 20.7986 7.55995 20.8559C7.60704 20.9119 7.66877 20.9399 7.74514 20.9399C7.81768 20.9399 7.87368 20.9227 7.91314 20.8884C7.95259 20.8527 7.97995 20.812 7.99523 20.7662L8.22241 20.791ZM7.74514 20.224C7.67004 20.224 7.61023 20.2482 7.56568 20.2966C7.52241 20.3436 7.49695 20.4028 7.48932 20.4741H8.00095C7.99459 20.4028 7.96914 20.3436 7.92459 20.2966C7.88132 20.2482 7.8215 20.224 7.74514 20.224ZM8.69303 20.2106C8.76557 20.1063 8.87057 20.0541 9.00803 20.0541C9.10857 20.0541 9.19321 20.0853 9.26194 20.1476C9.33067 20.2087 9.36503 20.2997 9.36503 20.4206V21.0869H9.14166V20.4817C9.14166 20.3952 9.12385 20.3335 9.08821 20.2966C9.05385 20.2584 9.00167 20.2393 8.93167 20.2393C8.88967 20.2393 8.85085 20.2507 8.81521 20.2736C8.77957 20.2966 8.7503 20.3303 8.72739 20.3748C8.70576 20.4194 8.69494 20.4728 8.69494 20.5352V21.0869H8.47157V20.077H8.68539V20.2106H8.69303ZM4.13746 22.6364C4.12092 22.7191 4.08655 22.7974 4.03437 22.8712C3.98346 22.9437 3.91537 23.0029 3.8301 23.0487C3.74482 23.0946 3.64555 23.1175 3.53228 23.1175C3.40501 23.1175 3.29173 23.0888 3.19246 23.0316C3.09446 22.973 3.0181 22.8903 2.96337 22.7834C2.90864 22.6752 2.88128 22.5486 2.88128 22.4035C2.88128 22.2596 2.90864 22.1343 2.96337 22.0274C3.0181 21.9192 3.09446 21.8365 3.19246 21.7792C3.29173 21.7219 3.40501 21.6933 3.53228 21.6933C3.6341 21.6933 3.7251 21.7124 3.80528 21.7506C3.88673 21.7887 3.95292 21.8377 4.00382 21.8976C4.05601 21.9574 4.09292 22.0204 4.11455 22.0866L3.87973 22.1324C3.85301 22.0611 3.80973 22.0032 3.74992 21.9586C3.69137 21.9141 3.61882 21.8918 3.53228 21.8918C3.40755 21.8918 3.30828 21.9364 3.23446 22.0255C3.16192 22.1146 3.12564 22.2406 3.12564 22.4035C3.12564 22.5676 3.16192 22.6949 3.23446 22.7853C3.30828 22.8744 3.40755 22.9189 3.53228 22.9189C3.63282 22.9189 3.71301 22.8896 3.77282 22.8311C3.83392 22.7713 3.87528 22.6956 3.89692 22.6039L4.13746 22.6364ZM5.23629 22.9189C5.25156 22.9189 5.2662 22.9164 5.2802 22.9113V23.0869C5.25475 23.0946 5.21784 23.0984 5.16947 23.0984C5.11729 23.0984 5.07466 23.0888 5.04156 23.0697C5.00975 23.0506 4.98811 23.0201 4.97666 22.9781H4.96902C4.9372 23.0214 4.89202 23.0545 4.83347 23.0774C4.7762 23.099 4.71575 23.1098 4.65211 23.1098C4.59229 23.1098 4.53693 23.0977 4.48602 23.0736C4.43638 23.0494 4.39629 23.0144 4.36575 22.9686C4.33647 22.9227 4.32184 22.8699 4.32184 22.8101C4.32184 22.7057 4.35556 22.6294 4.42302 22.581C4.49047 22.5314 4.59356 22.4989 4.73229 22.4836C4.82266 22.4735 4.88375 22.4601 4.91556 22.4436C4.94866 22.4257 4.9652 22.4003 4.9652 22.3672C4.9652 22.2743 4.90411 22.2278 4.78193 22.2278C4.73102 22.2278 4.68584 22.2412 4.64638 22.2679C4.60693 22.2946 4.57956 22.3347 4.56429 22.3882L4.35811 22.3481C4.37975 22.2565 4.42875 22.1846 4.50511 22.1324C4.58275 22.0802 4.67693 22.0541 4.78766 22.0541C4.92511 22.0541 5.02629 22.0827 5.0912 22.14C5.15611 22.1973 5.18856 22.2736 5.18856 22.3691V22.8597C5.18856 22.8826 5.19238 22.8986 5.20002 22.9075C5.20893 22.9151 5.22102 22.9189 5.23629 22.9189ZM4.9652 22.5791C4.9512 22.5931 4.92384 22.6052 4.88311 22.6154C4.84366 22.6243 4.79338 22.6326 4.73229 22.6402C4.67756 22.6478 4.63366 22.665 4.60056 22.6917C4.56747 22.7185 4.55093 22.756 4.55093 22.8044C4.55093 22.8476 4.56429 22.882 4.59102 22.9075C4.61775 22.9316 4.65466 22.9437 4.70175 22.9437C4.74375 22.9437 4.78511 22.9348 4.82584 22.917C4.86656 22.8979 4.89966 22.8699 4.92511 22.833C4.95184 22.7948 4.9652 22.7477 4.9652 22.6917V22.5791ZM5.68752 22.2297H5.69516C5.72316 22.1776 5.76261 22.1356 5.81352 22.1037C5.86571 22.0706 5.92616 22.0541 5.99489 22.0541C6.02543 22.0541 6.05343 22.0573 6.07889 22.0636V22.2775C6.04325 22.2724 6.00889 22.2698 5.9758 22.2698C5.78998 22.2698 5.69707 22.3666 5.69707 22.56V23.0869H5.47371V22.077H5.68752V22.2297ZM6.64996 22.0541C6.71869 22.0541 6.77914 22.0668 6.83132 22.0923C6.88478 22.1165 6.92487 22.1502 6.95159 22.1935H6.95923V21.7047H7.18259V23.0869H6.97069V22.9571H6.96305C6.93505 23.0055 6.89369 23.043 6.83896 23.0697C6.78423 23.0965 6.72187 23.1098 6.65187 23.1098C6.56405 23.1098 6.48578 23.0882 6.41705 23.0449C6.34832 23.0004 6.29423 22.9386 6.25478 22.8597C6.21659 22.7796 6.1975 22.6873 6.1975 22.5829C6.1975 22.4773 6.21659 22.385 6.25478 22.3061C6.29423 22.2259 6.34832 22.1642 6.41705 22.1209C6.48578 22.0764 6.56341 22.0541 6.64996 22.0541ZM6.7015 22.9342C6.78423 22.9342 6.84978 22.903 6.89814 22.8406C6.94778 22.7783 6.97259 22.6924 6.97259 22.5829C6.97259 22.4735 6.94778 22.3876 6.89814 22.3252C6.84978 22.2628 6.78423 22.2316 6.7015 22.2316C6.61623 22.2316 6.54878 22.2628 6.49914 22.3252C6.45078 22.3876 6.42659 22.4735 6.42659 22.5829C6.42659 22.6924 6.45078 22.7783 6.49914 22.8406C6.54878 22.903 6.61623 22.9342 6.7015 22.9342ZM8.48801 21.7238C8.69165 21.7238 8.85265 21.7817 8.97101 21.8976C9.08937 22.0134 9.14856 22.1826 9.14856 22.4054C9.14856 22.6281 9.08937 22.7974 8.97101 22.9132C8.85265 23.029 8.69165 23.0869 8.48801 23.0869H7.9611V21.7238H8.48801ZM8.45556 22.8903C8.59937 22.8903 8.7101 22.8496 8.78774 22.7681C8.86537 22.6866 8.90419 22.5657 8.90419 22.4054C8.90419 22.245 8.86537 22.1241 8.78774 22.0426C8.7101 21.9612 8.59937 21.9205 8.45556 21.9205H8.20165V22.8903H8.45556ZM10.3105 22.791C10.2837 22.8788 10.2322 22.9539 10.1558 23.0163C10.0795 23.0786 9.97193 23.1098 9.8332 23.1098C9.73648 23.1098 9.6512 23.0882 9.57739 23.0449C9.50357 23.0004 9.44629 22.9386 9.40557 22.8597C9.36611 22.7808 9.34639 22.6892 9.34639 22.5848C9.34639 22.4779 9.36611 22.385 9.40557 22.3061C9.44502 22.2259 9.50102 22.1642 9.57357 22.1209C9.64739 22.0764 9.73393 22.0541 9.8332 22.0541C9.92866 22.0541 10.0127 22.0745 10.0852 22.1152C10.159 22.1559 10.2163 22.2157 10.257 22.2946C10.299 22.3723 10.32 22.4652 10.32 22.5734C10.32 22.5861 10.3187 22.6065 10.3162 22.6345H9.57357C9.57611 22.7248 9.60093 22.7986 9.64802 22.8559C9.69511 22.9119 9.75684 22.9399 9.8332 22.9399C9.90575 22.9399 9.96175 22.9227 10.0012 22.8884C10.0407 22.8527 10.068 22.812 10.0833 22.7662L10.3105 22.791ZM9.8332 22.224C9.75811 22.224 9.69829 22.2482 9.65375 22.2966C9.61048 22.3436 9.58502 22.4028 9.57739 22.4741H10.089C10.0827 22.4028 10.0572 22.3436 10.0127 22.2966C9.96939 22.2482 9.90957 22.224 9.8332 22.224ZM10.9249 22.9227C10.972 22.9227 11.0076 22.9176 11.0318 22.9075V23.0869C11.019 23.092 10.9968 23.0971 10.965 23.1022C10.9331 23.1073 10.9032 23.1098 10.8752 23.1098C10.7798 23.1098 10.7104 23.092 10.6671 23.0564C10.6239 23.0195 10.6022 22.9552 10.6022 22.8636V22.2374H10.438V22.077H10.6022V21.7945H10.8256V22.077H11.0413V22.2374H10.8256V22.8349C10.8256 22.8706 10.8326 22.8941 10.8466 22.9056C10.8619 22.917 10.888 22.9227 10.9249 22.9227ZM12.1269 22.9189C12.1422 22.9189 12.1568 22.9164 12.1708 22.9113V23.0869C12.1454 23.0946 12.1085 23.0984 12.0601 23.0984C12.0079 23.0984 11.9653 23.0888 11.9322 23.0697C11.9004 23.0506 11.8787 23.0201 11.8673 22.9781H11.8596C11.8278 23.0214 11.7826 23.0545 11.7241 23.0774C11.6668 23.099 11.6064 23.1098 11.5427 23.1098C11.4829 23.1098 11.4276 23.0977 11.3766 23.0736C11.327 23.0494 11.2869 23.0144 11.2564 22.9686C11.2271 22.9227 11.2125 22.8699 11.2125 22.8101C11.2125 22.7057 11.2462 22.6294 11.3136 22.581C11.3811 22.5314 11.4842 22.4989 11.6229 22.4836C11.7133 22.4735 11.7744 22.4601 11.8062 22.4436C11.8393 22.4257 11.8558 22.4003 11.8558 22.3672C11.8558 22.2743 11.7947 22.2278 11.6726 22.2278C11.6216 22.2278 11.5765 22.2412 11.537 22.2679C11.4976 22.2946 11.4702 22.3347 11.4549 22.3882L11.2487 22.3481C11.2704 22.2565 11.3194 22.1846 11.3957 22.1324C11.4734 22.0802 11.5676 22.0541 11.6783 22.0541C11.8157 22.0541 11.9169 22.0827 11.9818 22.14C12.0467 22.1973 12.0792 22.2736 12.0792 22.3691V22.8597C12.0792 22.8826 12.083 22.8986 12.0906 22.9075C12.0996 22.9151 12.1116 22.9189 12.1269 22.9189ZM11.8558 22.5791C11.8418 22.5931 11.8145 22.6052 11.7737 22.6154C11.7343 22.6243 11.684 22.6326 11.6229 22.6402C11.5682 22.6478 11.5243 22.665 11.4912 22.6917C11.4581 22.7185 11.4416 22.756 11.4416 22.8044C11.4416 22.8476 11.4549 22.882 11.4816 22.9075C11.5084 22.9316 11.5453 22.9437 11.5924 22.9437C11.6344 22.9437 11.6757 22.9348 11.7165 22.917C11.7572 22.8979 11.7903 22.8699 11.8157 22.833C11.8425 22.7948 11.8558 22.7477 11.8558 22.6917V22.5791ZM12.582 22.077V23.0869H12.3586V22.077H12.582ZM12.582 21.7047V21.9243H12.3586V21.7047H12.582ZM13.1004 21.7047V23.0869H12.877V21.7047H13.1004ZM14.0194 22.3806C14.0066 22.3271 13.9799 22.2864 13.9392 22.2584C13.8985 22.2304 13.8507 22.2164 13.796 22.2164C13.74 22.2164 13.6955 22.2285 13.6624 22.2526C13.6293 22.2756 13.6127 22.3086 13.6127 22.3519C13.6127 22.3888 13.628 22.4156 13.6585 22.4321C13.6904 22.4486 13.7381 22.462 13.8017 22.4722L13.9029 22.4894C14.0111 22.5085 14.0951 22.539 14.1549 22.581C14.216 22.623 14.2465 22.6936 14.2465 22.7929C14.2465 22.8947 14.2058 22.973 14.1244 23.0277C14.0429 23.0825 13.9366 23.1098 13.8055 23.1098C13.6783 23.1098 13.5739 23.0812 13.4925 23.0239C13.411 22.9666 13.3614 22.8903 13.3435 22.7948L13.5497 22.7566C13.5637 22.8228 13.593 22.8718 13.6375 22.9036C13.6821 22.9355 13.7394 22.9514 13.8094 22.9514C13.8717 22.9514 13.922 22.938 13.9602 22.9113C13.9996 22.8833 14.0194 22.8464 14.0194 22.8006C14.0194 22.7611 14.0022 22.7318 13.9678 22.7127C13.9347 22.6936 13.8845 22.679 13.817 22.6688L13.712 22.6497C13.614 22.6345 13.5351 22.6058 13.4753 22.5638C13.4155 22.5218 13.3855 22.4525 13.3855 22.3557C13.3855 22.2972 13.4034 22.245 13.439 22.1992C13.4746 22.1534 13.5236 22.1177 13.586 22.0923C13.6496 22.0668 13.7203 22.0541 13.7979 22.0541C13.8717 22.0541 13.9392 22.0668 14.0003 22.0923C14.0614 22.1177 14.111 22.1527 14.1492 22.1973C14.1886 22.2418 14.2135 22.2908 14.2236 22.3443L14.0194 22.3806Z" fill="white" fill-opacity="0.5"/>
<mask id="mask0_1303_8010" style="mask-type:alpha" maskUnits="userSpaceOnUse" x="2" y="2" width="3" height="2">
<path fill-rule="evenodd" clip-rule="evenodd" d="M2.9883 2.69407C2.79601 2.83137 2.72047 3.07506 2.80975 3.45947C2.81318 3.43888 2.82005 3.42172 2.82692 3.40113C2.99174 2.91717 3.55145 2.96866 3.9532 2.95836C4.35839 2.9515 4.50261 2.70094 4.54038 2.40576C4.2176 2.69407 3.44843 2.36801 2.9883 2.69407Z" fill="#D9D9D9"/>
</mask>
<g mask="url(#mask0_1303_8010)">
<path d="M4.53932 2.37378H2.71289V3.47171H4.53932V2.37378Z" fill="url(#paint1_linear_1303_8010)"/>
</g>
<path d="M5.64404 3.25359V4.30319H6.16884C6.38981 4.30319 6.5141 4.1858 6.5141 3.9959C6.5141 3.87161 6.4485 3.78875 6.34492 3.75077V3.74386C6.43124 3.70588 6.47612 3.63683 6.47612 3.54016C6.47612 3.36753 6.35528 3.25704 6.14467 3.25704H5.64404V3.25359ZM5.86501 3.68862V3.42277H6.11015C6.21027 3.42277 6.26206 3.47111 6.26206 3.55397C6.26206 3.63683 6.21027 3.68517 6.11015 3.68517H5.86501V3.68862ZM5.86501 4.1271V3.84054H6.12741C6.23444 3.84054 6.29313 3.89232 6.29313 3.98209C6.29313 4.07186 6.23789 4.12365 6.12741 4.12365H5.86501V4.1271ZM7.2357 4.15472C7.21498 4.15472 7.20117 4.14782 7.20117 4.10984V3.75767C7.20117 3.60921 7.1045 3.50563 6.87317 3.50563C6.69364 3.50563 6.56244 3.59195 6.52791 3.74041L6.71781 3.76803C6.74197 3.68862 6.80067 3.65409 6.86972 3.65409C6.95604 3.65409 6.99402 3.69207 6.99402 3.75077C6.99402 3.7991 6.95604 3.81982 6.81103 3.83708C6.61077 3.86125 6.50029 3.9234 6.50029 4.09258C6.50029 4.23759 6.62113 4.3239 6.76269 4.3239C6.85591 4.3239 6.95258 4.29283 7.00092 4.22723H7.00783C7.03199 4.29283 7.08378 4.317 7.17355 4.317C7.21153 4.317 7.24951 4.31354 7.26677 4.30664V4.15472C7.25987 4.15472 7.24606 4.15472 7.2357 4.15472ZM6.99747 3.99936C6.99747 4.1271 6.89734 4.17889 6.81793 4.17889C6.75233 4.17889 6.7109 4.14091 6.7109 4.07877C6.7109 4.00626 6.76614 3.97173 6.83865 3.96138C6.9077 3.95102 6.9733 3.94066 6.99747 3.91995V3.99936ZM7.46012 3.62647V3.5229H7.26332V4.29973H7.47048V3.88197C7.47048 3.74386 7.54989 3.67481 7.6362 3.67481C7.72942 3.67481 7.78121 3.71969 7.78121 3.84399V4.30319H7.98837V3.7922C7.98837 3.5954 7.86407 3.50908 7.71561 3.50908C7.60513 3.50908 7.52227 3.55397 7.47048 3.62993H7.46012V3.62647ZM8.25422 4.05114L8.34053 3.96138L8.56495 4.30319H8.80318L8.47864 3.82327L8.76866 3.5229H8.53043L8.24731 3.82327V3.23633H8.04016V4.29973H8.24731V4.05114H8.25422Z" fill="white"/>
<path d="M6.16141 1.9375C5.85758 1.9375 5.64697 2.1412 5.64697 2.48647C5.64697 2.83173 5.86103 3.03543 6.16141 3.03543C6.46524 3.03543 6.67585 2.83173 6.67585 2.48647C6.67585 2.1412 6.46524 1.9375 6.16141 1.9375ZM6.16141 2.8559C5.99223 2.8559 5.87139 2.73505 5.87139 2.48647C5.87139 2.23788 5.99223 2.11704 6.16141 2.11704C6.33059 2.11704 6.45143 2.23788 6.45143 2.48647C6.45143 2.73505 6.33059 2.8559 6.16141 2.8559ZM7.16612 3.02853C7.35947 3.02853 7.50448 2.86971 7.50448 2.62112C7.50448 2.37253 7.35947 2.21371 7.16267 2.21371C7.05909 2.21371 6.97278 2.24824 6.92444 2.33455H6.91753V2.23442H6.72074V3.28402H6.92789V2.91804H6.9348C6.97623 2.99055 7.05564 3.02853 7.16612 3.02853ZM7.10398 2.37253C7.22136 2.37253 7.29387 2.45884 7.29387 2.62112C7.29387 2.78684 7.21791 2.86971 7.10398 2.86971C6.99004 2.86971 6.91408 2.78339 6.91408 2.62112C6.91408 2.45539 6.99004 2.37253 7.10398 2.37253ZM7.85665 2.8628C7.8014 2.8628 7.77724 2.85244 7.77724 2.7903V2.37253H7.93951V2.23442H7.77724V2.01691H7.57008V2.23442H7.44579V2.37253H7.57008V2.83173C7.57008 2.98709 7.64258 3.03198 7.79795 3.03198C7.84974 3.03198 7.90844 3.02162 7.9326 3.01472V2.8559C7.91534 2.8559 7.88772 2.8628 7.85665 2.8628ZM7.96368 1.94786V2.12394H8.17083V1.94786H7.96368ZM7.96368 2.23442V3.01126H8.17083V2.23442H7.96368ZM9.16864 2.21371C9.04089 2.21371 8.96839 2.26895 8.90279 2.34146C8.8579 2.25514 8.77159 2.21371 8.67492 2.21371C8.57134 2.21371 8.49538 2.26205 8.44014 2.33455H8.43323V2.23097H8.23643V3.00781H8.44359V2.58659C8.44359 2.44849 8.5161 2.37943 8.59551 2.37943C8.68182 2.37943 8.73016 2.42432 8.73016 2.54861V3.00781H8.93731V2.58659C8.93731 2.44849 9.00982 2.37943 9.08923 2.37943C9.17554 2.37943 9.22388 2.42432 9.22388 2.54861V3.00781H9.43104V2.49682C9.43104 2.30002 9.3102 2.21371 9.16864 2.21371ZM10.018 2.90768V3.01126H10.2148V2.23442H10.0076V2.6591C10.0076 2.7972 9.92822 2.86625 9.8419 2.86625C9.74868 2.86625 9.69689 2.82137 9.69689 2.69708V2.23442H9.48973V2.74541C9.48973 2.94221 9.61403 3.02853 9.76249 3.02853C9.87297 3.02853 9.95584 2.98364 10.0076 2.90768H10.018ZM10.9295 2.44158C10.9053 2.30693 10.7672 2.21371 10.5877 2.21371C10.4047 2.21371 10.2562 2.30348 10.2562 2.45194C10.2562 2.61766 10.3874 2.66255 10.5117 2.68326L10.598 2.69708C10.6843 2.71089 10.743 2.73505 10.743 2.7903C10.743 2.8559 10.6843 2.89387 10.598 2.89387C10.5013 2.89387 10.4357 2.85244 10.4185 2.75922L10.2286 2.78684C10.2562 2.93876 10.3943 3.03198 10.598 3.03198C10.8017 3.03198 10.9536 2.95257 10.9536 2.78339C10.9536 2.61076 10.819 2.56933 10.6774 2.54516L10.598 2.53135C10.5186 2.51754 10.4599 2.50373 10.4599 2.44503C10.4599 2.38634 10.5117 2.35181 10.5877 2.35181C10.6636 2.35181 10.7258 2.39324 10.7396 2.4692L10.9295 2.44158Z" fill="white"/>
<path fill-rule="evenodd" clip-rule="evenodd" d="M4.39735 2.03041C5.00501 2.28245 5.29158 2.97988 5.03954 3.58754C4.7875 4.1952 4.09007 4.48177 3.48241 4.22973C3.36502 4.18139 3.25799 4.11579 3.16822 4.03638C3.10262 3.97423 3.01976 3.78779 3.04048 3.64278C3.06119 3.49777 3.29252 3.50468 3.43062 3.54956C3.28216 3.62897 3.36847 3.81541 3.68957 3.91554C4.12114 4.04674 4.65975 3.87756 4.8531 3.41146C5.06371 2.90737 4.80131 2.31698 4.26615 2.09601C3.75517 1.88195 3.02321 2.16852 2.80225 2.77618C2.8126 2.74165 2.82641 2.70712 2.84022 2.6726C3.09227 2.06494 3.78969 1.77492 4.39735 2.03041Z" fill="white"/>
<path opacity="0.15" fill-rule="evenodd" clip-rule="evenodd" d="M3.16835 4.03418C3.06477 3.89953 3.12347 3.72345 3.24086 3.63023C3.2961 3.58879 3.35825 3.56463 3.43075 3.54736C3.35134 3.59225 3.34098 3.66475 3.39968 3.74071C3.12692 3.75107 3.16835 4.03073 3.16835 4.03418Z" fill="#001F5C"/>
<path opacity="0.15" fill-rule="evenodd" clip-rule="evenodd" d="M3.16835 4.03418C3.06477 3.89953 3.12347 3.72345 3.24086 3.63023C3.2961 3.58879 3.35825 3.56463 3.43075 3.54736C3.38587 3.57153 3.3617 3.60606 3.3617 3.64404C3.10275 3.70964 3.13383 3.97203 3.16835 4.03418Z" fill="#001F5C"/>
<path opacity="0.15" fill-rule="evenodd" clip-rule="evenodd" d="M2.82737 3.40258C2.9924 2.91301 3.55282 2.96472 3.95165 2.95783C4.34017 2.95093 4.48801 2.71994 4.5327 2.44067C4.48801 2.52687 4.42612 2.59582 4.3436 2.64753C4.24733 2.70615 4.13731 2.73373 4.02729 2.74752C3.90696 2.76476 3.78662 2.76476 3.66284 2.77165C3.47031 2.77855 3.24683 2.78889 3.07148 2.88198C2.86519 2.9923 2.81361 3.20261 2.81705 3.42326C2.82393 3.41292 2.82393 3.40947 2.82737 3.40258Z" fill="#001F5C"/>
<mask id="mask1_1303_8010" style="mask-type:alpha" maskUnits="userSpaceOnUse" x="2" y="2" width="3" height="3">
<path fill-rule="evenodd" clip-rule="evenodd" d="M3.28252 3.15863C2.89555 3.29033 2.78844 3.70968 3.17196 4.04238C3.06831 3.90722 3.12705 3.73047 3.24452 3.6369C3.55548 3.39083 4.2465 3.75126 4.39161 2.98535C4.11521 3.21755 3.66259 3.03041 3.28252 3.15863Z" fill="#D9D9D9"/>
</mask>
<g mask="url(#mask1_1303_8010)">
<path d="M4.38421 2.98535H2.78564V4.0384H4.38421V2.98535Z" fill="url(#paint2_linear_1303_8010)"/>
</g>
<path opacity="0.2" fill-rule="evenodd" clip-rule="evenodd" d="M3.24483 3.63754C3.29988 3.59562 3.36181 3.57117 3.43407 3.5537C3.76781 3.48383 4.24949 3.61309 4.38024 3.01221C4.30798 3.12749 4.20821 3.20784 4.07746 3.25675C3.97769 3.29518 3.86759 3.30916 3.76093 3.31614C3.66459 3.32313 3.56825 3.32662 3.47535 3.3406C3.38934 3.35108 3.29988 3.37204 3.22419 3.41396C3.21387 3.42095 3.20355 3.42444 3.19322 3.43143C3.14506 3.46287 3.10721 3.5013 3.07968 3.55021C3.04184 3.61658 3.02807 3.69344 3.04184 3.7703C3.0556 3.84716 3.09001 3.91703 3.13473 3.97991V3.97641C3.10377 3.89606 3.11753 3.81222 3.15538 3.73886C3.15882 3.73536 3.15882 3.73187 3.16226 3.72838C3.1829 3.69344 3.21043 3.662 3.24483 3.63754Z" fill="#001F5C"/>
<g clip-path="url(#clip0_1303_8010)">
<path fill-rule="evenodd" clip-rule="evenodd" d="M42.383 21.5838C42.383 22.3497 41.7626 22.9707 40.9974 22.9707C40.2322 22.9707 39.6118 22.3497 39.6118 21.5838C39.6118 20.8178 40.2322 20.1968 40.9974 20.1968C41.7626 20.1968 42.383 20.8178 42.383 21.5838Z" fill="#ED342B"/>
<path fill-rule="evenodd" clip-rule="evenodd" d="M40.9971 22.1771C40.6872 21.4739 40.46 20.817 40.46 20.817H39.9849C39.9849 20.817 40.274 21.6602 40.8112 22.7146H41.1831C41.7202 21.6602 42.0094 20.817 42.0094 20.817H41.5343C41.5343 20.817 41.307 21.4739 40.9971 22.1771Z" fill="#E6EBF5"/>
<path fill-rule="evenodd" clip-rule="evenodd" d="M46.9647 21.5132C46.6961 21.5132 46.6755 21.8027 46.6755 21.8027H47.2538C47.2538 21.8027 47.2332 21.5132 46.9647 21.5132ZM47.605 22.0922H46.6755C46.6755 22.0922 46.6961 22.4024 47.1093 22.4024C47.3158 22.4024 47.5224 22.3403 47.5224 22.3403L47.5637 22.6712C47.5637 22.6712 47.3572 22.7539 47.0679 22.7539C46.6548 22.7539 46.283 22.5471 46.283 21.9681C46.283 21.5132 46.5722 21.2237 46.9853 21.2237C47.605 21.2237 47.6463 21.8441 47.605 22.0922ZM44.4441 21.6036L44.5081 21.2622C44.5081 21.2622 44.0142 21.1122 43.6128 21.3902V22.7559H44.0391V21.6462C44.2096 21.5183 44.4441 21.6036 44.4441 21.6036ZM42.6671 21.5132C42.3985 21.5132 42.3779 21.8027 42.3779 21.8027H42.9563C42.9563 21.8027 42.9357 21.5132 42.6671 21.5132ZM43.3074 22.0922H42.3779C42.3779 22.0922 42.3985 22.4024 42.8117 22.4024C43.0182 22.4024 43.2248 22.3403 43.2248 22.3403L43.2661 22.6712C43.2661 22.6712 43.0595 22.7539 42.7703 22.7539C42.3572 22.7539 41.9854 22.5471 41.9854 21.9681C41.9854 21.5132 42.2746 21.2237 42.6877 21.2237C43.3074 21.2237 43.3487 21.8441 43.3074 22.0922ZM45.4846 22.2339C45.2681 21.7138 45.1599 21.224 45.1599 21.224L44.727 21.224C44.727 21.224 44.9435 22.0605 45.3115 22.7537H45.6577C46.0257 22.0605 46.2422 21.2241 46.2422 21.2241H45.8093C45.8093 21.2241 45.7011 21.7138 45.4846 22.2339Z" fill="white"/>
</g>
<path d="M39.8453 3.02352L39.7537 3.15524L39.5876 3.02924L39.5933 3.24688H39.4291L39.4368 3.02924L39.2688 3.15524L39.1771 3.02352L39.3833 2.89561L39.1771 2.76579L39.2688 2.63406L39.4368 2.76006L39.4291 2.54243H39.5933L39.5876 2.76006L39.7537 2.63406L39.8453 2.76579L39.6391 2.89561L39.8453 3.02352ZM40.7775 3.02352L40.6859 3.15524L40.5198 3.02924L40.5255 3.24688H40.3613L40.3689 3.02924L40.2009 3.15524L40.1093 3.02352L40.3155 2.89561L40.1093 2.76579L40.2009 2.63406L40.3689 2.76006L40.3613 2.54243H40.5255L40.5198 2.76006L40.6859 2.63406L40.7775 2.76579L40.5713 2.89561L40.7775 3.02352ZM41.7097 3.02352L41.618 3.15524L41.4519 3.02924L41.4577 3.24688H41.2935L41.3011 3.02924L41.1331 3.15524L41.0415 3.02352L41.2477 2.89561L41.0415 2.76579L41.1331 2.63406L41.3011 2.76006L41.2935 2.54243H41.4577L41.4519 2.76006L41.618 2.63406L41.7097 2.76579L41.5035 2.89561L41.7097 3.02352ZM42.6418 3.02352L42.5502 3.15524L42.3841 3.02924L42.3898 3.24688H42.2257L42.2333 3.02924L42.0653 3.15524L41.9737 3.02352L42.1798 2.89561L41.9737 2.76579L42.0653 2.63406L42.2333 2.76006L42.2257 2.54243H42.3898L42.3841 2.76006L42.5502 2.63406L42.6418 2.76579L42.4357 2.89561L42.6418 3.02352ZM43.4022 2.99297C43.4786 2.99297 43.5505 3.01015 43.6179 3.04452C43.6866 3.07888 43.7426 3.1317 43.7859 3.20297C43.8292 3.27297 43.8508 3.35952 43.8508 3.46261C43.8508 3.5657 43.8279 3.65288 43.7821 3.72415C43.7376 3.79415 43.6777 3.84634 43.6026 3.8807C43.5276 3.91506 43.4442 3.93224 43.3526 3.93224C43.2189 3.93224 43.1076 3.89979 43.0185 3.83488C42.9294 3.76997 42.8734 3.67643 42.8505 3.55424L43.1254 3.52752C43.1356 3.58861 43.1604 3.63634 43.1998 3.6707C43.2406 3.70506 43.2915 3.72224 43.3526 3.72224C43.4175 3.72224 43.4709 3.69997 43.5129 3.65543C43.5549 3.61088 43.5759 3.54597 43.5759 3.4607C43.5759 3.37543 43.5549 3.31115 43.5129 3.26788C43.4709 3.22334 43.4162 3.20106 43.3487 3.20106C43.2609 3.20106 43.1877 3.23288 43.1292 3.29652H42.8772L42.9402 2.56915H43.7611V2.7887H43.1559L43.1292 3.09415H43.1368C43.1712 3.05852 43.2094 3.03306 43.2514 3.01779C43.2934 3.00124 43.3436 2.99297 43.4022 2.99297ZM44.6415 3.03497C44.7128 3.03497 44.7828 3.05215 44.8515 3.08652C44.9202 3.11961 44.9769 3.16924 45.0214 3.23543C45.066 3.30034 45.0882 3.37861 45.0882 3.47024C45.0882 3.57334 45.0641 3.65988 45.0157 3.72988C44.9673 3.79861 44.9056 3.84952 44.8305 3.88261C44.7554 3.9157 44.6778 3.93224 44.5976 3.93224C44.5111 3.93224 44.4328 3.91761 44.3628 3.88834C44.2928 3.85779 44.2342 3.81261 44.1871 3.75279C44.1031 3.64334 44.0611 3.47088 44.0611 3.23543C44.0611 2.77343 44.2393 2.54243 44.5957 2.54243C44.7115 2.54243 44.8108 2.5717 44.8935 2.63024C44.9775 2.68879 45.0341 2.77152 45.0634 2.87843L44.8038 2.91088C44.7898 2.85997 44.765 2.81861 44.7293 2.78679C44.6937 2.75497 44.6491 2.73906 44.5957 2.73906C44.5193 2.73906 44.4551 2.76961 44.4029 2.8307C44.3507 2.89052 44.3246 2.99615 44.3246 3.14761V3.16097H44.3322C44.3704 3.11897 44.4162 3.08779 44.4697 3.06743C44.5244 3.04579 44.5817 3.03497 44.6415 3.03497ZM44.59 3.73752C44.6549 3.73752 44.7096 3.71524 44.7541 3.6707C44.8 3.62488 44.8229 3.56188 44.8229 3.4817C44.8229 3.40152 44.8 3.33915 44.7541 3.29461C44.7096 3.25006 44.6549 3.22779 44.59 3.22779C44.5212 3.22779 44.4633 3.2507 44.4162 3.29652C44.3691 3.34234 44.3456 3.40406 44.3456 3.4817C44.3456 3.55934 44.3691 3.6217 44.4162 3.66879C44.4633 3.71461 44.5212 3.73752 44.59 3.73752ZM46.2196 2.6837C46.2196 2.74988 46.2062 2.81034 46.1795 2.86506C46.1528 2.91852 46.1102 2.98788 46.0516 3.07315C45.9943 3.15588 45.9472 3.2297 45.9103 3.29461C45.8747 3.35952 45.8435 3.43906 45.8168 3.53324C45.7913 3.62743 45.7786 3.73497 45.7786 3.85588V3.90743H45.4942V3.84252C45.4942 3.71397 45.5113 3.59561 45.5457 3.48743C45.5801 3.37797 45.6202 3.28379 45.666 3.20488C45.7131 3.1247 45.7722 3.03497 45.8435 2.9357L45.9332 2.80588V2.79824H45.2574V2.56915H46.2196V2.6837ZM47.2473 3.83106C47.1505 3.89852 47.0283 3.93224 46.8807 3.93224C46.7865 3.93224 46.7006 3.91761 46.623 3.88834C46.5466 3.85906 46.4855 3.81452 46.4397 3.7547C46.3939 3.69488 46.371 3.62043 46.371 3.53134C46.371 3.44734 46.3907 3.3767 46.4302 3.31943C46.4696 3.26215 46.525 3.21952 46.5963 3.19152V3.18388C46.5352 3.15843 46.4874 3.12279 46.4531 3.07697C46.42 3.02988 46.4034 2.97388 46.4034 2.90897C46.4034 2.82752 46.4251 2.75943 46.4683 2.7047C46.5129 2.64997 46.5714 2.60924 46.644 2.58252C46.7165 2.55579 46.7954 2.54243 46.8807 2.54243C46.966 2.54243 47.0449 2.55579 47.1174 2.58252C47.1913 2.60924 47.2498 2.64997 47.2931 2.7047C47.3376 2.75943 47.3599 2.82752 47.3599 2.90897C47.3599 2.97388 47.3427 3.02988 47.3083 3.07697C47.2753 3.12279 47.2282 3.15843 47.1671 3.18388V3.19152C47.2383 3.21952 47.2937 3.26215 47.3332 3.31943C47.3726 3.3767 47.3923 3.44734 47.3923 3.53134C47.3923 3.6637 47.344 3.76361 47.2473 3.83106ZM47.0392 2.78106C46.9959 2.74797 46.9431 2.73143 46.8807 2.73143C46.8196 2.73143 46.7668 2.74797 46.7223 2.78106C46.679 2.81415 46.6573 2.86188 46.6573 2.92424C46.6573 2.98661 46.679 3.03434 46.7223 3.06743C46.7655 3.10052 46.8183 3.11706 46.8807 3.11706C46.9431 3.11706 46.9959 3.10052 47.0392 3.06743C47.0837 3.03434 47.106 2.98661 47.106 2.92424C47.106 2.86188 47.0837 2.81415 47.0392 2.78106ZM47.0544 3.34806C47.0073 3.30988 46.9494 3.29079 46.8807 3.29079C46.8133 3.29079 46.756 3.30988 46.7089 3.34806C46.6618 3.38497 46.6383 3.4397 46.6383 3.51224C46.6383 3.58479 46.6618 3.64079 46.7089 3.68024C46.756 3.71843 46.8133 3.73752 46.8807 3.73752C46.9494 3.73752 47.0073 3.71843 47.0544 3.68024C47.1015 3.64079 47.1251 3.58479 47.1251 3.51224C47.1251 3.4397 47.1015 3.38497 47.0544 3.34806Z" fill="white"/>
</g>
<defs>
<filter id="filter0_d_1303_8010" x="0.454545" y="0" width="49.0909" height="26.1817" filterUnits="userSpaceOnUse" color-interpolation-filters="sRGB">
<feFlood flood-opacity="0" result="BackgroundImageFix"/>
<feColorMatrix in="SourceAlpha" type="matrix" values="0 0 0 0 0 0 0 0 0 0 0 0 0 0 0 0 0 0 127 0" result="hardAlpha"/>
<feOffset dy="0.545455"/>
<feGaussianBlur stdDeviation="0.272727"/>
<feComposite in2="hardAlpha" operator="out"/>
<feColorMatrix type="matrix" values="0 0 0 0 0 0 0 0 0 0 0 0 0 0 0 0 0 0 0.25 0"/>
<feBlend mode="normal" in2="BackgroundImageFix" result="effect1_dropShadow_1303_8010"/>
<feBlend mode="normal" in="SourceGraphic" in2="effect1_dropShadow_1303_8010" result="shape"/>
</filter>
<linearGradient id="paint0_linear_1303_8010" x1="1" y1="1.89712" x2="66.1569" y2="44.9066" gradientUnits="userSpaceOnUse">
<stop stop-color="#003399"/>
<stop offset="1" stop-color="#0DDE65"/>
</linearGradient>
<linearGradient id="paint1_linear_1303_8010" x1="3.24149" y1="2.18478" x2="3.89554" y2="3.43799" gradientUnits="userSpaceOnUse">
<stop stop-color="#003398"/>
<stop offset="1" stop-color="#4DEA8F"/>
</linearGradient>
<linearGradient id="paint2_linear_1303_8010" x1="3.91116" y1="2.70353" x2="3.27221" y2="4.29305" gradientUnits="userSpaceOnUse">
<stop stop-color="#003398"/>
<stop offset="1" stop-color="#4DEA8F"/>
</linearGradient>
<clipPath id="clip0_1303_8010">
<rect width="8.04545" height="2.80655" fill="white" transform="translate(39.5908 20.1799)"/>
</clipPath>
</defs>
</svg>
